<svg width="99" height="99" viewBox="0 0 99 99" fill="none" xmlns="http://www.w3.org/2000/svg">
<g clip-path="url(#clip0_2_337)">
<path d="M99 0H0V99H99V0Z" fill="#EEEEEE"/>
<path d="M27.7855 35.4136C27.7855 36.1401 27.6188 36.8071 27.2853 37.4145C26.9518 38.01 26.4397 38.4923 25.7489 38.8615C25.0582 39.2307 24.2007 39.4153 23.1764 39.4153H21.2828V43.9172H18.2279V31.3762H23.1764C24.1768 31.3762 25.0224 31.5489 25.7132 31.8943C26.404 32.2397 26.922 32.7161 27.2674 33.3235C27.6128 33.9309 27.7855 34.6276 27.7855 35.4136ZM22.9442 36.9857C23.5278 36.9857 23.9625 36.8488 24.2483 36.5748C24.5341 36.3009 24.677 35.9138 24.677 35.4136C24.677 34.9134 24.5341 34.5264 24.2483 34.2524C23.9625 33.9785 23.5278 33.8415 22.9442 33.8415H21.2828V36.9857H22.9442ZM38.4511 43.9172L35.8429 39.1831H35.1105V43.9172H32.0556V31.3762H37.1828C38.1713 31.3762 39.0109 31.5489 39.7017 31.8943C40.4044 32.2397 40.9284 32.7161 41.2738 33.3235C41.6192 33.919 41.7918 34.5859 41.7918 35.3243C41.7918 36.158 41.5536 36.9024 41.0773 37.5574C40.6128 38.2124 39.922 38.6769 39.005 38.9508L41.899 43.9172H38.4511ZM35.1105 37.0215H37.0041C37.5639 37.0215 37.9807 36.8845 38.2546 36.6106C38.5405 36.3366 38.6834 35.9496 38.6834 35.4494C38.6834 34.973 38.5405 34.5978 38.2546 34.3239C37.9807 34.05 37.5639 33.913 37.0041 33.913H35.1105V37.0215ZM49.444 31.3762V43.9172H46.3892V31.3762H49.444ZM68.5399 31.3762V43.9172H65.4851V36.3962L62.6803 43.9172H60.215L57.3924 36.3783V43.9172H54.3375V31.3762H57.9462L61.4655 40.0584L64.9491 31.3762H68.5399ZM76.4712 33.8237V36.3605H80.5622V38.7186H76.4712V41.4698H81.0981V43.9172H73.4165V31.3762H81.0981V33.8237H76.4712Z" fill="#18191C"/>
<path d="M24.6235 65.5039L22.0152 60.7697H21.2828V65.5039H18.2279V52.9629H23.3551C24.3436 52.9629 25.1832 53.1356 25.874 53.481C26.5767 53.8263 27.1007 54.3027 27.4461 54.9101C27.7915 55.5056 27.9641 56.1726 27.9641 56.911C27.9641 57.7447 27.726 58.489 27.2496 59.1441C26.7851 59.7991 26.0943 60.2636 25.1773 60.5375L28.0713 65.5039H24.6235ZM21.2828 58.6081H23.1764C23.7362 58.6081 24.153 58.4712 24.4269 58.1972C24.7128 57.9233 24.8557 57.5362 24.8557 57.036C24.8557 56.5596 24.7128 56.1845 24.4269 55.9106C24.153 55.6366 23.7362 55.4997 23.1764 55.4997H21.2828V58.6081ZM35.6164 55.4104V57.9471H39.7074V60.3053H35.6164V63.0564H40.2433V65.5039H32.5615V52.9629H40.2433V55.4104H35.6164ZM56.1253 65.5039H53.0704L47.9611 57.7685V65.5039H44.9062V52.9629H47.9611L53.0704 60.734V52.9629H56.1253V65.5039ZM70.041 52.9629V55.4104H66.7182V65.5039H63.6633V55.4104H60.3405V52.9629H70.041Z" fill="#18191C"/>
<path d="M78.1579 62.5264C79.8023 62.5264 81.1353 61.1934 81.1353 59.549C81.1353 57.9046 79.8023 56.5715 78.1579 56.5715C76.5135 56.5715 75.1805 57.9046 75.1805 59.549C75.1805 61.1934 76.5135 62.5264 78.1579 62.5264Z" fill="#18191C"/>
</g>
<defs>
<clipPath id="clip0_2_337">
<rect width="99" height="99" fill="white"/>
</clipPath>
</defs>
</svg>
