<svg width="133" height="133" viewBox="0 0 133 133" fill="none" xmlns="http://www.w3.org/2000/svg">
<rect width="133" height="133" fill="#18191C"/>
<path d="M37.328 47.576C37.328 48.552 37.104 49.448 36.656 50.264C36.208 51.064 35.52 51.712 34.592 52.208C33.664 52.704 32.512 52.952 31.136 52.952H28.592V59H24.488V42.152H31.136C32.48 42.152 33.616 42.384 34.544 42.848C35.472 43.312 36.168 43.952 36.632 44.768C37.096 45.584 37.328 46.52 37.328 47.576ZM30.824 49.688C31.608 49.688 32.192 49.504 32.576 49.136C32.96 48.768 33.152 48.248 33.152 47.576C33.152 46.904 32.96 46.384 32.576 46.016C32.192 45.648 31.608 45.464 30.824 45.464H28.592V49.688H30.824ZM51.6566 59L48.1526 52.64H47.1686V59H43.0646V42.152H49.9526C51.2806 42.152 52.4086 42.384 53.3366 42.848C54.2806 43.312 54.9846 43.952 55.4486 44.768C55.9126 45.568 56.1446 46.464 56.1446 47.456C56.1446 48.576 55.8246 49.576 55.1846 50.456C54.5606 51.336 53.6326 51.96 52.4006 52.328L56.2886 59H51.6566ZM47.1686 49.736H49.7126C50.4646 49.736 51.0246 49.552 51.3926 49.184C51.7766 48.816 51.9686 48.296 51.9686 47.624C51.9686 46.984 51.7766 46.48 51.3926 46.112C51.0246 45.744 50.4646 45.56 49.7126 45.56H47.1686V49.736ZM66.4248 42.152V59H62.3208V42.152H66.4248ZM92.0789 42.152V59H87.9749V48.896L84.2069 59H80.8949L77.1029 48.872V59H72.9989V42.152H77.8469L82.5749 53.816L87.2549 42.152H92.0789ZM102.734 45.44V48.848H108.23V52.016H102.734V55.712H108.95V59H98.6302V42.152H108.95V45.44H102.734Z" fill="#EEEEEE"/>
<path d="M33.08 88L29.576 81.64H28.592V88H24.488V71.152H31.376C32.704 71.152 33.832 71.384 34.76 71.848C35.704 72.312 36.408 72.952 36.872 73.768C37.336 74.568 37.568 75.464 37.568 76.456C37.568 77.576 37.248 78.576 36.608 79.456C35.984 80.336 35.056 80.96 33.824 81.328L37.712 88H33.08ZM28.592 78.736H31.136C31.888 78.736 32.448 78.552 32.816 78.184C33.2 77.816 33.392 77.296 33.392 76.624C33.392 75.984 33.2 75.48 32.816 75.112C32.448 74.744 31.888 74.56 31.136 74.56H28.592V78.736ZM47.8483 74.44V77.848H53.3443V81.016H47.8483V84.712H54.0643V88H43.7443V71.152H54.0643V74.44H47.8483ZM75.4006 88H71.2966L64.4326 77.608V88H60.3286V71.152H64.4326L71.2966 81.592V71.152H75.4006V88ZM94.0955 71.152V74.44H89.6315V88H85.5275V74.44H81.0635V71.152H94.0955Z" fill="#EEEEEE"/>
<circle cx="105" cy="80" r="4" fill="#EEEEEE"/>
</svg>
