<svg width="184" height="36" viewBox="0 0 184 36" fill="none" xmlns="http://www.w3.org/2000/svg">
<path d="M122.08 26L118.576 19.64H117.592V26H113.488V9.152H120.376C121.704 9.152 122.832 9.384 123.76 9.848C124.704 10.312 125.408 10.952 125.872 11.768C126.336 12.568 126.568 13.464 126.568 14.456C126.568 15.576 126.248 16.576 125.608 17.456C124.984 18.336 124.056 18.96 122.824 19.328L126.712 26H122.08ZM117.592 16.736H120.136C120.888 16.736 121.448 16.552 121.816 16.184C122.2 15.816 122.392 15.296 122.392 14.624C122.392 13.984 122.2 13.48 121.816 13.112C121.448 12.744 120.888 12.56 120.136 12.56H117.592V16.736ZM136.848 12.44V15.848H142.344V19.016H136.848V22.712H143.064V26H132.744V9.152H143.064V12.44H136.848ZM164.401 26H160.297L153.433 15.608V26H149.329V9.152H153.433L160.297 19.592V9.152H164.401V26ZM183.095 9.152V12.44H178.631V26H174.527V12.44H170.063V9.152H183.095Z" fill="#EEEEEE"/>
<path d="M14.328 14.576C14.328 15.552 14.104 16.448 13.656 17.264C13.208 18.064 12.52 18.712 11.592 19.208C10.664 19.704 9.512 19.952 8.136 19.952H5.592V26H1.488V9.152H8.136C9.48 9.152 10.616 9.384 11.544 9.848C12.472 10.312 13.168 10.952 13.632 11.768C14.096 12.584 14.328 13.52 14.328 14.576ZM7.824 16.688C8.608 16.688 9.192 16.504 9.576 16.136C9.96 15.768 10.152 15.248 10.152 14.576C10.152 13.904 9.96 13.384 9.576 13.016C9.192 12.648 8.608 12.464 7.824 12.464H5.592V16.688H7.824ZM28.6566 26L25.1526 19.64H24.1686V26H20.0646V9.152H26.9526C28.2806 9.152 29.4086 9.384 30.3366 9.848C31.2806 10.312 31.9846 10.952 32.4486 11.768C32.9126 12.568 33.1446 13.464 33.1446 14.456C33.1446 15.576 32.8246 16.576 32.1846 17.456C31.5606 18.336 30.6326 18.96 29.4006 19.328L33.2886 26H28.6566ZM24.1686 16.736H26.7126C27.4646 16.736 28.0246 16.552 28.3926 16.184C28.7766 15.816 28.9686 15.296 28.9686 14.624C28.9686 13.984 28.7766 13.48 28.3926 13.112C28.0246 12.744 27.4646 12.56 26.7126 12.56H24.1686V16.736ZM43.4248 9.152V26H39.3208V9.152H43.4248ZM69.0789 9.152V26H64.9749V15.896L61.2069 26H57.8949L54.1029 15.872V26H49.9989V9.152H54.8469L59.5749 20.816L64.2549 9.152H69.0789ZM79.7342 12.44V15.848H85.2302V19.016H79.7342V22.712H85.9502V26H75.6302V9.152H85.9502V12.44H79.7342Z" fill="#EEEEEE"/>
<circle cx="100" cy="18" r="4" fill="#EEEEEE"/>
</svg>
