<svg width="45" height="45" viewBox="0 0 45 45" fill="none" xmlns="http://www.w3.org/2000/svg">
<g clip-path="url(#clip0_2_152)">
<path d="M4.71143 9.94853H12.8817L14.9804 5.55111C15.4675 4.46609 15.9516 4.05151 16.7795 4.05151H28.9319C29.76 4.05151 30.3435 4.7045 30.7315 5.55111L32.8297 9.94853H40.2886C41.541 9.94853 42.6944 10.4075 43.5418 11.1459C44.4411 11.9299 45 13.0275 45 14.248V36.6489C45 37.8694 44.4412 38.967 43.5418 39.751C42.6944 40.4893 41.541 40.9484 40.2886 40.9484H4.71139C3.45895 40.9484 2.30558 40.4894 1.45822 39.751C0.558855 38.967 0 37.8694 0 36.6489V14.248C0 13.0275 0.558832 11.9299 1.45822 11.1459C2.30558 10.4075 3.45895 9.94853 4.71139 9.94853H4.71141H4.71143ZM14.3813 13.2685H5.03261C4.51896 13.2685 4.0649 13.4401 3.7479 13.7161C3.48441 13.9462 3.32005 14.2495 3.32005 14.5692V36.3277C3.32005 36.6474 3.48444 36.9507 3.7479 37.1808C4.0649 37.4568 4.51894 37.628 5.03261 37.628H39.967C40.481 37.628 40.9347 37.4568 41.2517 37.1808C41.5152 36.9507 41.6795 36.6474 41.6795 36.3277V14.5692C41.6795 14.2495 41.5152 13.9462 41.2517 13.7161C40.9347 13.4401 40.481 13.2685 39.967 13.2685H31.3301C30.7944 13.1611 30.1467 12.4682 29.8305 11.7689L28.2212 8.39656C27.9156 7.75572 27.3066 7.3719 26.597 7.3719H19.1146C18.4051 7.3719 17.7961 7.75648 17.4905 8.39656L15.8808 11.7689C15.552 12.4849 15.0187 13.1983 14.3812 13.2685H14.3813H14.3813Z" fill="#18191C"/>
<path d="M22.5 15.7499C25.0254 15.7499 27.3128 16.7746 28.968 18.4302C30.6236 20.0855 31.6483 22.3728 31.6483 24.8982C31.6483 27.4236 30.6236 29.711 28.968 31.3662C27.3128 33.0218 25.0254 34.0465 22.5 34.0465C19.9746 34.0465 17.6873 33.0218 16.032 31.3662C14.3764 29.711 13.3517 27.4236 13.3517 24.8982C13.3517 22.3728 14.3764 20.0855 16.032 18.4302C17.6873 16.7746 19.9746 15.7499 22.5 15.7499ZM26.8469 20.5513C25.735 19.4393 24.1974 18.7503 22.5 18.7503C20.8026 18.7503 19.2651 19.4393 18.1531 20.5513C17.0411 21.6629 16.3521 23.2008 16.3521 24.8982C16.3521 26.5956 17.0411 28.1332 18.1531 29.2452C19.2651 30.3571 20.8026 31.0462 22.5 31.0462C24.1974 31.0462 25.735 30.3571 26.8469 29.2452C27.9589 28.1332 28.648 26.5956 28.648 24.8982C28.648 23.2008 27.9589 21.6629 26.8469 20.5513Z" fill="#18191C"/>
</g>
<defs>
<clipPath id="clip0_2_152">
<rect width="45" height="45" fill="white"/>
</clipPath>
</defs>
</svg>
