<svg width="49" height="49" viewBox="0 0 49 49" fill="none" xmlns="http://www.w3.org/2000/svg">
<path d="M24.5 8.42188C21.3201 8.42188 18.2115 9.36484 15.5675 11.1315C12.9234 12.8982 10.8627 15.4093 9.64576 18.3472C8.42884 21.2851 8.11044 24.5178 8.73082 27.6367C9.3512 30.7555 10.8825 33.6204 13.1311 35.869C15.3796 38.1175 18.2445 39.6488 21.3633 40.2692C24.4822 40.8896 27.7149 40.5712 30.6528 39.3542C33.5907 38.1373 36.1018 36.0766 37.8685 33.4325C39.6352 30.7885 40.5781 27.68 40.5781 24.5C40.5733 20.2373 38.8778 16.1506 35.8636 13.1364C32.8494 10.1222 28.7627 8.42674 24.5 8.42188ZM37.3066 31.3906H32.1272C32.6031 29.3824 32.8628 27.3291 32.902 25.2656H39.0078C38.9026 27.4083 38.3215 29.5006 37.3066 31.3906ZM9.99218 25.2656H16.098C16.1372 27.3291 16.3969 29.3824 16.8729 31.3906H11.6934C10.6785 29.5006 10.0974 27.4083 9.99218 25.2656ZM11.6934 17.6094H16.8729C16.3969 19.6176 16.1372 21.6709 16.098 23.7344H9.99218C10.0974 21.5917 10.6785 19.4994 11.6934 17.6094ZM25.2656 16.0781V10.0542C27.2187 10.5342 28.9491 12.8227 30.0692 16.0781H25.2656ZM30.5385 17.6094C31.0481 19.6127 31.3275 21.6677 31.3715 23.7344H25.2656V17.6094H30.5385ZM23.7344 10.0542V16.0781H18.9309C20.051 12.8227 21.7813 10.5342 23.7344 10.0542ZM23.7344 17.6094V23.7344H17.6285C17.6725 21.6677 17.952 19.6127 18.4615 17.6094H23.7344ZM17.6285 25.2656H23.7344V31.3906H18.4615C17.952 29.3873 17.6725 27.3323 17.6285 25.2656ZM23.7344 32.9219V38.9458C21.7813 38.4658 20.051 36.1773 18.9309 32.9219H23.7344ZM25.2656 38.9458V32.9219H30.0692C28.9491 36.1773 27.2187 38.4658 25.2656 38.9458ZM25.2656 31.3906V25.2656H31.3715C31.3275 27.3323 31.0481 29.3873 30.5385 31.3906H25.2656ZM32.902 23.7344C32.8628 21.6709 32.6031 19.6176 32.1272 17.6094H37.3066C38.3215 19.4994 38.9026 21.5917 39.0078 23.7344H32.902ZM36.3389 16.0781H31.6969C31.1176 14.0651 30.1203 12.1969 28.7699 10.5955C31.8257 11.5439 34.4851 13.4703 36.3389 16.0781ZM20.2271 10.5955C18.8778 12.1971 17.8815 14.0653 17.3031 16.0781H12.6611C14.5142 13.4708 17.1724 11.5445 20.2271 10.5955ZM12.6611 32.9219H17.3031C17.8824 34.9349 18.8798 36.8031 20.2301 38.4045C17.1743 37.4561 14.5149 35.5297 12.6611 32.9219ZM28.773 38.4045C30.1222 36.8029 31.1185 34.9347 31.6969 32.9219H36.3358C34.4836 35.5286 31.8265 37.4549 28.773 38.4045Z" fill="#18191C"/>
<path d="M24.4999 2.29688C24.0044 2.29842 23.5227 2.46057 23.1271 2.759C22.7315 3.05744 22.4433 3.47608 22.3057 3.95216C17.457 4.47141 12.9479 6.68805 9.57551 10.2103C6.20309 13.7326 4.18442 18.3336 3.87629 23.2003C3.56816 28.067 4.99041 32.8859 7.89167 36.8054C10.7929 40.7248 14.9864 43.4925 19.7309 44.6191C19.9277 44.6587 20.1322 44.6218 20.3029 44.516C20.4735 44.4102 20.5975 44.2434 20.6496 44.0495C20.6955 43.852 20.6613 43.6444 20.5544 43.4722C20.4474 43.2999 20.2766 43.1771 20.0792 43.1307C15.692 42.09 11.8129 39.5338 9.12603 35.9128C6.43912 32.2918 5.11681 27.8384 5.39221 23.3378C5.66762 18.8372 7.52306 14.5783 10.6314 11.312C13.7398 8.04558 17.9016 5.98143 22.383 5.48341C22.5439 5.86645 22.8057 6.19867 23.1405 6.44468C23.4753 6.69069 23.8706 6.84128 24.2842 6.88041C24.6979 6.91955 25.1144 6.84575 25.4894 6.6669C25.8644 6.48804 26.1838 6.21081 26.4137 5.86475C26.6436 5.51868 26.7754 5.11674 26.7949 4.70173C26.8144 4.28671 26.721 3.87417 26.5246 3.50805C26.3283 3.14192 26.0362 2.83592 25.6797 2.62263C25.3231 2.40934 24.9154 2.29676 24.4999 2.29688ZM24.4999 5.35938C24.3485 5.35938 24.2005 5.31447 24.0746 5.23034C23.9487 5.14622 23.8505 5.02664 23.7926 4.88674C23.7346 4.74684 23.7195 4.5929 23.749 4.44438C23.7786 4.29587 23.8515 4.15945 23.9586 4.05237C24.0656 3.9453 24.2021 3.87238 24.3506 3.84284C24.4991 3.81329 24.653 3.82846 24.7929 3.8864C24.9328 3.94435 25.0524 4.04249 25.1365 4.16839C25.2207 4.2943 25.2656 4.44232 25.2656 4.59375C25.2656 4.79681 25.1849 4.99155 25.0413 5.13513C24.8977 5.27871 24.703 5.35938 24.4999 5.35938Z" fill="#18191C"/>
<path d="M45.1718 24.5C45.1879 19.842 43.6239 15.3163 40.7355 11.662C37.847 8.00775 33.8048 5.44094 29.269 4.38088C29.0714 4.33438 28.8633 4.36831 28.6907 4.47521C28.518 4.58211 28.3949 4.75321 28.3484 4.95089C28.3019 5.14856 28.3358 5.35662 28.4427 5.52927C28.5496 5.70193 28.7207 5.82505 28.9184 5.87155C33.3041 6.91338 37.1815 9.4697 39.8672 13.0901C42.5529 16.7105 43.8747 21.1626 43.5996 25.662C43.3245 30.1614 41.4703 34.4193 38.3635 37.6856C35.2568 40.9518 31.0969 43.0168 26.6169 43.5166C26.4105 43.0115 26.0321 42.5958 25.5486 42.3429C25.0651 42.09 24.5078 42.0163 23.9752 42.1349C23.4426 42.2534 22.9691 42.5565 22.6385 42.9905C22.3079 43.4246 22.1415 43.9616 22.1688 44.5065C22.196 45.0514 22.4152 45.5692 22.7874 45.9681C23.1597 46.367 23.661 46.6213 24.2028 46.6861C24.7445 46.751 25.2917 46.622 25.7475 46.3222C26.2034 46.0224 26.5385 45.5709 26.6935 45.0478C31.7641 44.5014 36.4544 42.102 39.8646 38.3099C43.2749 34.5177 45.1648 29.6 45.1718 24.5ZM24.5 45.1718C24.3485 45.1718 24.2005 45.1269 24.0746 45.0428C23.9487 44.9587 23.8506 44.8391 23.7926 44.6992C23.7347 44.5593 23.7195 44.4054 23.7491 44.2569C23.7786 44.1083 23.8515 43.9719 23.9586 43.8648C24.0657 43.7578 24.2021 43.6849 24.3506 43.6553C24.4991 43.6258 24.6531 43.6409 24.793 43.6989C24.9329 43.7568 25.0524 43.855 25.1366 43.9809C25.2207 44.1068 25.2656 44.2548 25.2656 44.4062C25.2656 44.6093 25.1849 44.804 25.0413 44.9476C24.8978 45.0912 24.703 45.1718 24.5 45.1718Z" fill="#18191C"/>
</svg>
