<svg width="49" height="49" viewBox="0 0 49 49" fill="none" xmlns="http://www.w3.org/2000/svg">
<path d="M42.8481 16.1351C43.0933 13.0583 42.0956 10.0035 40.0582 7.66131C37.8749 5.15111 34.714 3.71155 31.3864 3.71155C25.044 3.71155 19.8839 8.87033 19.8839 15.2113C19.8839 21.5523 25.044 26.7111 31.3864 26.7111C33.0729 26.7111 34.7456 26.338 36.265 25.6278C37.3712 27.5366 39.4352 28.8243 41.7956 28.8243C45.3185 28.8243 48.1844 25.9584 48.1844 22.4356C48.1844 19.2713 45.8716 16.6386 42.8481 16.1351ZM30.7163 21.7411V20.5444C29.019 20.2829 27.7295 19.0485 27.7295 17.5687C27.7295 17.1986 28.0295 16.8986 28.3996 16.8986C28.7697 16.8986 29.0697 17.1986 29.0697 17.5687C29.0697 18.4991 30.1089 19.256 31.3864 19.256C32.6422 19.256 33.7032 18.4833 33.7032 17.5687C33.7032 16.4408 32.9969 16.1958 31.2626 15.8698C29.7716 15.5894 27.7295 15.2055 27.7295 12.8537C27.7295 11.3738 29.019 10.1394 30.7163 9.87799V8.67864C30.7163 8.30855 31.0163 8.00852 31.3864 8.00852C31.7565 8.00852 32.0565 8.30855 32.0565 8.67864V9.87799C33.7539 10.1394 35.0434 11.3738 35.0434 12.8537C35.0434 13.2238 34.7434 13.5238 34.3733 13.5238C34.0032 13.5238 33.7032 13.2238 33.7032 12.8537C33.7032 11.939 32.6422 11.1663 31.3864 11.1663C30.1089 11.1663 29.0697 11.9233 29.0697 12.8537C29.0697 13.9816 29.776 14.2266 31.5103 14.5527C33.0013 14.833 35.0434 15.2169 35.0434 17.5687C35.0434 19.0485 33.7539 20.2829 32.0565 20.5444V21.741C32.0565 22.111 31.7565 22.4111 31.3864 22.4111C31.0163 22.4111 30.7163 22.1111 30.7163 21.7411ZM41.7956 27.4841C39.0118 27.4841 36.747 25.2194 36.747 22.4356C36.747 19.6518 39.0118 17.387 41.7956 17.387C44.5794 17.387 46.8442 19.6518 46.8442 22.4356C46.8442 25.2194 44.5794 27.4841 41.7956 27.4841ZM45.0319 20.2593C45.287 20.5274 45.2764 20.9515 45.0082 21.2066L41.4028 24.6356C41.2732 24.7588 41.1071 24.8202 40.9411 24.8202C40.7694 24.8202 40.5978 24.7546 40.4672 24.6239L38.571 22.7277C38.3094 22.466 38.3094 22.0417 38.571 21.78C38.8327 21.5184 39.257 21.5184 39.5187 21.78L40.9528 23.2142L44.0847 20.2356C44.3527 19.9805 44.7769 19.991 45.0319 20.2593ZM34.4275 28.6561H21.0201C21.0617 27.5376 21.0421 26.891 20.9304 24.4081C20.787 21.1557 18.4658 19.7296 16.8141 19.7296C16.7866 19.7296 16.7588 19.73 16.7317 19.7307C15.5015 19.7668 14.6537 20.5751 14.6699 21.6963C14.6978 23.67 14.7058 24.137 14.7092 24.3373C14.7109 24.4365 14.713 24.6095 14.7156 24.8562L14.7349 26.666C14.7377 26.9506 14.7115 27.321 14.5704 27.4705C14.4629 27.5845 14.2255 27.6618 13.9248 27.7596C13.0369 28.0486 11.6953 28.4851 10.5832 30.839L10.5663 30.8751C10.4984 31.0201 10.4399 31.1447 10.3211 31.2329V30.7315C10.3211 29.6395 9.49229 28.7511 8.47353 28.7511H2.76589C2.23752 28.7511 1.70723 29.0004 1.34738 29.4181C0.999693 29.8217 0.850013 30.3232 0.926002 30.8317L2.87672 43.738C3.04918 44.8635 3.78963 45.6197 4.7192 45.6197H8.47372C9.49248 45.6197 10.3213 44.73 10.3213 43.6365V42.9541C10.9115 42.9662 11.2346 43.257 11.789 43.8051C12.5243 44.532 13.5312 45.5274 15.7686 45.5274H25.92C27.359 45.5274 28.5298 44.3554 28.5298 42.9149C28.5298 42.3857 28.3714 41.893 28.1 41.481C29.0959 41.1124 29.8077 40.1541 29.8077 39.0328C29.8077 38.3313 29.5292 37.6939 29.0776 37.2241C29.7022 36.7467 30.1061 35.9951 30.1061 35.1506C30.1061 34.6889 29.9852 34.2551 29.7742 33.8783H34.4276C35.9362 33.8783 36.7255 32.5647 36.7255 31.2672C36.7255 29.9696 35.9362 28.6561 34.4276 28.6561H34.4275ZM6.28452 34.2582C6.28452 34.6283 5.98449 34.9283 5.6144 34.9283C5.24432 34.9283 4.94429 34.6283 4.94429 34.2582V31.9441C4.94429 31.574 5.24432 31.274 5.6144 31.274C5.98449 31.274 6.28452 31.574 6.28452 31.9441V34.2582ZM25.92 44.1871H21.8346C21.133 44.1871 20.5623 43.6163 20.5623 42.9148C20.5623 42.2133 21.133 41.6425 21.8346 41.6425C21.883 41.6425 21.9301 41.6372 21.9755 41.6274C22.0674 41.6373 22.1606 41.6425 22.2551 41.6425H25.9201C26.6201 41.6425 27.1897 42.2133 27.1897 42.9148C27.1897 43.6163 26.6201 44.1871 25.92 44.1871ZM27.1951 40.3023H22.255C21.5535 40.3023 20.9827 39.7328 20.9827 39.0327C20.9827 38.3326 21.5535 37.7604 22.255 37.7604C22.289 37.7604 22.3223 37.7571 22.3551 37.7522C22.4206 37.7572 22.4866 37.7604 22.5534 37.7604H27.1951C27.8966 37.7604 28.4673 38.3312 28.4673 39.0327C28.4673 39.7342 27.8966 40.3023 27.1951 40.3023ZM27.4935 36.4203H22.5534C21.8519 36.4203 21.2811 35.8508 21.2811 35.1506C21.2811 34.4504 21.8519 33.8783 22.5534 33.8783H27.4935C28.195 33.8783 28.7658 34.4491 28.7658 35.1506C28.7658 35.8521 28.195 36.4203 27.4935 36.4203ZM34.4275 32.5382H22.5534C21.1129 32.5382 19.9409 33.7102 19.9409 35.1507C19.9409 35.8514 20.2193 36.488 20.6708 36.9574C20.0463 37.4352 19.6425 38.1875 19.6425 39.0328C19.6425 39.7074 19.9 40.323 20.3221 40.7867C19.657 41.2608 19.222 42.0378 19.222 42.9149C19.222 43.3766 19.3429 43.8104 19.5539 44.1872H15.7686C14.0817 44.1872 13.4258 43.5387 12.7312 42.852C12.15 42.2775 11.4912 41.6282 10.3213 41.614V32.6549C11.3072 32.4531 11.6296 31.765 11.7803 31.4431L11.7952 31.4112C12.66 29.5806 13.5522 29.2903 14.3395 29.0341C15.1206 28.78 16.0927 28.4636 16.075 26.6523L16.0557 24.8423C16.0531 24.5913 16.0509 24.4153 16.0492 24.3143C16.0459 24.1144 16.0378 23.6481 16.0101 21.6771C16.0031 21.1942 16.42 21.0806 16.771 21.0703C17.8763 21.0384 19.4859 22.0702 19.5917 24.4677C19.723 27.3836 19.7223 27.7393 19.6569 29.1808C19.4805 32.9451 17.8684 34.4805 14.0922 34.4805C13.7221 34.4805 13.4221 34.7805 13.4221 35.1506C13.4221 35.5207 13.7221 35.8207 14.0922 35.8207C19.4906 35.8207 20.6758 32.6906 20.9417 29.9963H34.4276C35.1836 29.9963 35.3853 30.7952 35.3853 31.2672C35.3853 31.7391 35.1837 32.5381 34.4276 32.5381L34.4275 32.5382Z" fill="#18191C"/>
</svg>
