<svg width="45" height="45" viewBox="0 0 45 45" fill="none" xmlns="http://www.w3.org/2000/svg">
<path d="M34.4733 19.7719H33.6025C33.3571 18.8995 33.0107 18.0623 32.5689 17.2737L33.1838 16.6588C33.4554 16.3872 33.605 16.0256 33.605 15.6403C33.605 15.2551 33.4554 14.8934 33.1838 14.6219L30.786 12.224C30.5144 11.9524 30.1526 11.8029 29.7675 11.8029C29.3823 11.8029 29.0206 11.9524 28.749 12.224L28.1338 12.8394C27.3451 12.3975 26.508 12.051 25.636 11.8057V10.9345C25.636 10.1404 24.9899 9.49424 24.1957 9.49406H20.8046C20.0103 9.49406 19.3641 10.1402 19.3641 10.9345V11.8052C18.4921 12.0505 17.6547 12.3969 16.866 12.8388L16.2511 12.224C15.9795 11.9524 15.6178 11.8029 15.2327 11.8029C14.8475 11.8029 14.4858 11.9524 14.2142 12.2239L11.8163 14.6219C11.5448 14.8934 11.3952 15.2551 11.3952 15.6403C11.3952 16.0256 11.5448 16.3872 11.8163 16.6589L12.4312 17.2737C11.9894 18.0624 11.643 18.8998 11.3976 19.7719H10.5268C9.73255 19.7719 9.08646 20.4181 9.08646 21.2123V24.6034C9.08646 25.3976 9.73263 26.0438 10.5268 26.0438H11.3976C11.643 26.9161 11.9894 27.7533 12.4312 28.5421L11.8163 29.157C11.2548 29.7185 11.2548 30.6322 11.8163 31.194L12.9522 32.3298L10.3896 41.8934C10.3354 42.0956 10.4061 42.3108 10.5694 42.4415C10.7328 42.5723 10.9583 42.5942 11.1437 42.4969L15.5794 40.1724L18.2584 44.4034C18.356 44.5576 18.525 44.6486 18.7038 44.6486C18.7302 44.6486 18.7568 44.6467 18.7834 44.6427C18.9904 44.6111 19.1591 44.46 19.2133 44.2578L21.3398 36.3217H23.6605L25.7869 44.2578C25.8411 44.46 26.0098 44.6111 26.2168 44.6427C26.2434 44.6467 26.27 44.6486 26.2964 44.6486C26.4752 44.6486 26.6443 44.5576 26.7418 44.4034L29.4208 40.1724L33.8565 42.4969C34.042 42.5941 34.2673 42.5723 34.4308 42.4415C34.5943 42.3108 34.6648 42.0955 34.6106 41.8934L32.0481 32.3298L33.184 31.1939C33.7456 30.6323 33.7456 29.7186 33.184 29.157L32.5691 28.5421C33.0108 27.7535 33.3572 26.9162 33.6027 26.0438H34.4735C35.2677 26.0438 35.9138 25.3977 35.9138 24.6035V21.2123C35.9138 20.4181 35.2677 19.7719 34.4735 19.7719H34.4733ZM18.5058 42.8227L16.2104 39.1975C16.0636 38.9656 15.7634 38.8849 15.5201 39.0126L11.7196 41.0043L13.8131 33.1909L14.214 33.5917C14.4856 33.8634 14.8473 34.0129 15.2325 34.0129C15.6176 34.0129 15.9794 33.8634 16.251 33.5917L16.8658 32.9769C17.6545 33.4187 18.4916 33.7651 19.364 34.0104V34.8813C19.364 35.4885 19.7422 36.008 20.275 36.2195L18.5058 42.8227ZM33.2805 41.0043L29.4799 39.0126C29.2367 38.8851 28.9365 38.9655 28.7896 39.1975L26.4942 42.8227L24.7248 36.2195C25.2576 36.008 25.636 35.4884 25.636 34.8812V34.01C26.5081 33.7646 27.3452 33.4182 28.1337 32.9763L28.7489 33.5916C29.0205 33.8633 29.3823 34.0128 29.7674 34.0128C30.1525 34.0128 30.5144 33.8633 30.7859 33.5916L31.1867 33.1908L33.2804 41.0042L33.2805 41.0043ZM34.859 24.6035C34.859 24.8161 34.686 24.9892 34.4734 24.9892H33.1957C32.9524 24.9892 32.7406 25.1557 32.6832 25.3921C32.4288 26.4396 32.0167 27.4359 31.4581 28.353C31.3316 28.5608 31.3636 28.8282 31.5356 29.0002L32.438 29.9027C32.5105 29.9751 32.5503 30.072 32.5503 30.1755C32.5503 30.279 32.5104 30.3758 32.438 30.4483L30.0402 32.8462C29.9679 32.9185 29.871 32.9583 29.7675 32.9583C29.6639 32.9583 29.5671 32.9185 29.4948 32.8462L28.5919 31.9433C28.4198 31.7713 28.1524 31.7393 27.9447 31.8657C27.0274 32.4243 26.0313 32.8366 24.9841 33.0909C24.7477 33.1483 24.5813 33.3601 24.5813 33.6033V34.8814C24.5813 35.094 24.4083 35.267 24.1957 35.267H20.8046C20.5919 35.267 20.4188 35.094 20.4188 34.8814V33.6036C20.4188 33.3602 20.2524 33.1485 20.0159 33.0911C18.9685 32.8368 17.9724 32.4247 17.0551 31.8661C16.9702 31.8144 16.8752 31.7892 16.7809 31.7892C16.6446 31.7892 16.5096 31.842 16.4078 31.9437L15.5053 32.8462C15.433 32.9186 15.3361 32.9584 15.2326 32.9584C15.129 32.9584 15.0322 32.9186 14.9598 32.8462L12.562 30.4484C12.4116 30.298 12.4116 30.0533 12.562 29.9029L13.4645 29.0003C13.6365 28.8283 13.6685 28.561 13.542 28.3533C12.9834 27.4359 12.5712 26.4396 12.3169 25.3923C12.2595 25.1559 12.0478 24.9894 11.8044 24.9894H10.5266C10.314 24.9894 10.141 24.8164 10.141 24.6037V21.2126C10.141 20.9999 10.314 20.8269 10.5266 20.8269H11.8044C12.0478 20.8269 12.2594 20.6603 12.3169 20.4239C12.5712 19.3767 12.9834 18.3805 13.542 17.4629C13.6685 17.2552 13.6365 16.9879 13.4645 16.8158L12.562 15.9134C12.4116 15.7629 12.4116 15.5183 12.562 15.3679L14.9598 12.97C15.1101 12.8197 15.3548 12.8196 15.5054 12.97L16.4079 13.8725C16.5799 14.0444 16.8473 14.0765 17.055 13.95C17.9726 13.3913 18.9688 12.9791 20.0159 12.725C20.2524 12.6676 20.4188 12.4559 20.4188 12.2125V10.9349C20.4188 10.7222 20.5919 10.5491 20.8046 10.5491H24.1956C24.4083 10.5491 24.5814 10.7222 24.5814 10.9349V12.2129C24.5814 12.4562 24.7479 12.6679 24.9842 12.7253C26.0312 12.9796 27.0272 13.3918 27.9448 13.9506C28.1526 14.077 28.4199 14.045 28.5919 13.8729L29.4948 12.97C29.5672 12.8977 29.664 12.8579 29.7676 12.8579C29.8711 12.8579 29.968 12.8977 30.0403 12.97L32.4381 15.3679C32.5105 15.4403 32.5504 15.5372 32.5504 15.6407C32.5504 15.7442 32.5105 15.841 32.4381 15.9134L31.5357 16.8159C31.3637 16.988 31.3317 17.2553 31.4581 17.463C32.0167 18.3804 32.4289 19.3766 32.6833 20.4241C32.7406 20.6604 32.9524 20.8269 33.1957 20.8269H34.4735C34.6861 20.8269 34.8592 20.9999 34.8592 21.2126V24.6039L34.859 24.6035ZM18.4361 3.98666L20.2533 5.52378L19.6867 7.83548C19.6357 8.04351 19.7156 8.26183 19.8889 8.38769C20.0622 8.51373 20.2945 8.52225 20.4766 8.40931L22.5001 7.15608L24.5235 8.40931C24.6087 8.46222 24.705 8.48833 24.8011 8.48833C24.9102 8.48833 25.019 8.45449 25.1111 8.3876C25.2844 8.26166 25.3643 8.04343 25.3134 7.83539L24.7467 5.52369L26.564 3.98657C26.7275 3.84823 26.7911 3.62472 26.7249 3.42091C26.6587 3.21726 26.4759 3.07383 26.2622 3.05801L23.8886 2.88258L22.9882 0.679334C22.9072 0.481052 22.7143 0.351501 22.5001 0.351501C22.2859 0.351501 22.093 0.48114 22.0119 0.679334L21.1116 2.88258L18.7379 3.05801C18.5243 3.07383 18.3414 3.21726 18.2753 3.42091C18.2091 3.62464 18.2726 3.84814 18.4362 3.98657L18.4361 3.98666ZM21.515 3.91046C21.7146 3.89569 21.8885 3.7693 21.9643 3.58403L22.5001 2.27297L23.0358 3.58403C23.1115 3.76922 23.2855 3.89569 23.4851 3.91046L24.8975 4.01487L23.8162 4.92955C23.6635 5.05884 23.5969 5.26336 23.6446 5.45777L23.9817 6.83326L22.7777 6.08759C22.6076 5.98221 22.3925 5.98221 22.2224 6.08759L21.0183 6.83326L21.3556 5.45777C21.4032 5.26336 21.3367 5.05884 21.1839 4.92955L20.1026 4.01487L21.5151 3.91046H21.515ZM9.52003 8.55354L11.8623 8.97621L12.5275 11.2615C12.5873 11.4672 12.7656 11.6162 12.9786 11.6386C12.9972 11.6405 13.0155 11.6415 13.0339 11.6415C13.2266 11.6415 13.4058 11.5359 13.4984 11.3636L14.6242 9.26651L17.0032 9.34016C17.2173 9.34561 17.4141 9.22318 17.5013 9.02754C17.5885 8.8318 17.5486 8.60294 17.4004 8.44825L15.7538 6.72946L16.5589 4.48966C16.6314 4.28812 16.5747 4.06277 16.4156 3.91942C16.2564 3.77607 16.0264 3.7432 15.8334 3.83645L13.69 4.87136L11.8086 3.41344C11.6393 3.28221 11.4075 3.26648 11.2219 3.37353C11.0365 3.48067 10.9342 3.68932 10.9631 3.90158L11.285 6.25986L9.31709 7.59861C9.13999 7.71911 9.05342 7.9347 9.09789 8.14424C9.14236 8.35386 9.30927 8.51557 9.52003 8.55354ZM12.1483 6.94813C12.3137 6.83563 12.4013 6.63902 12.3742 6.44083L12.1827 5.03748L13.3021 5.90496C13.4603 6.02757 13.6741 6.05007 13.8544 5.96305L15.1298 5.3472L14.6507 6.68007C14.583 6.86842 14.6277 7.07874 14.7661 7.22323L15.7459 8.24601L14.3304 8.20216C14.1318 8.19556 13.944 8.30349 13.8494 8.4798L13.1795 9.72767L12.7838 8.36774C12.7279 8.17561 12.568 8.03174 12.3711 7.99614L10.9773 7.74468L12.1484 6.94813H12.1483ZM10.9558 13.9062C11.1445 13.8049 11.2532 13.5995 11.2308 13.3865C11.2084 13.1734 11.0593 12.9951 10.8537 12.9352L8.56835 12.2701L8.14577 9.9278C8.10771 9.71704 7.94599 9.55013 7.73646 9.50557C7.52693 9.46128 7.31125 9.54767 7.19084 9.72477L5.85209 11.6928L3.49381 11.3709C3.28129 11.3419 3.07281 11.4442 2.96576 11.6297C2.85871 11.8152 2.87444 12.0471 3.00566 12.2164L4.46359 14.0977L3.42868 16.2412C3.33551 16.434 3.3683 16.6641 3.51165 16.8233C3.655 16.9824 3.88026 17.0389 4.08197 16.9667L6.32177 16.1615L8.04048 17.8081C8.14076 17.9041 8.27207 17.9546 8.4054 17.9546C8.47782 17.9546 8.55086 17.9396 8.61976 17.909C8.8155 17.8219 8.93898 17.625 8.93239 17.4109L8.85874 15.032L10.9558 13.9062ZM8.07203 14.2571C7.89572 14.3517 7.78823 14.538 7.79438 14.7381L7.83824 16.1537L6.81554 15.1739C6.7157 15.0783 6.58439 15.0274 6.45062 15.0274C6.39077 15.0274 6.33048 15.0376 6.27229 15.0585L4.93952 15.5376L5.55537 14.2621C5.64238 14.082 5.61988 13.868 5.49727 13.7099L4.6297 12.5904L6.03297 12.782C6.23116 12.8091 6.42777 12.7216 6.54027 12.5562L7.33691 11.3851L7.58828 12.7789C7.62379 12.9758 7.76775 13.1357 7.95988 13.1915L9.31981 13.5874L8.07194 14.2572L8.07203 14.2571ZM27.9968 9.34008L30.3759 9.26642L31.5016 11.3635C31.5941 11.5358 31.7734 11.6414 31.9661 11.6414C31.9843 11.6414 32.0028 11.6404 32.0213 11.6385C32.2344 11.6161 32.4127 11.4671 32.4726 11.2615L33.1377 8.97612L35.4801 8.55345C35.6909 8.5154 35.8578 8.35377 35.9022 8.14415C35.9468 7.93462 35.8601 7.71902 35.683 7.59852L33.7151 6.25977L34.037 3.90149C34.066 3.68924 33.9637 3.48058 33.7782 3.37344C33.5927 3.26639 33.3608 3.28213 33.1915 3.41335L31.3101 4.87128L29.1667 3.83636C28.9738 3.7432 28.7438 3.77598 28.5846 3.91933C28.4254 4.06268 28.3687 4.28803 28.4412 4.48957L29.2464 6.72937L27.5997 8.44816C27.4516 8.60285 27.4117 8.83172 27.4988 9.02745C27.5859 9.22318 27.7843 9.34799 27.9969 9.34008H27.9968ZM30.3493 6.68007L29.8702 5.3472L31.1456 5.96305C31.3258 6.04998 31.5397 6.02748 31.6979 5.90496L32.8174 5.03748L32.6259 6.44083C32.5988 6.63911 32.6863 6.83563 32.8517 6.94813L34.0228 7.74468L32.6289 7.99614C32.4321 8.03165 32.2722 8.17561 32.2163 8.36774L31.8205 9.72767L31.1507 8.4798C31.0587 8.30833 30.8799 8.20189 30.6861 8.20189C30.6807 8.20189 30.6751 8.20189 30.6697 8.20216L29.2541 8.24601L30.2339 7.22323C30.3723 7.07874 30.4171 6.86842 30.3493 6.68007ZM42.0343 11.6296C41.9272 11.4442 41.7188 11.342 41.5062 11.3708L39.148 11.6927L37.8092 9.72468C37.6887 9.54759 37.4732 9.4611 37.2636 9.50549C37.0541 9.55005 36.8923 9.71686 36.8543 9.92771L36.4317 12.27L34.1464 12.9352C33.9407 12.995 33.7916 13.1733 33.7692 13.3864C33.7469 13.5994 33.8555 13.8048 34.0442 13.9061L36.1414 15.0319L36.0677 17.4108C36.0612 17.6249 36.1846 17.8218 36.3804 17.9089C36.4493 17.9396 36.5223 17.9545 36.5947 17.9545C36.7281 17.9545 36.8595 17.904 36.9597 17.808L38.6783 16.1614L40.9181 16.9666C41.1197 17.0389 41.3451 16.9824 41.4884 16.8232C41.6317 16.6639 41.6645 16.4339 41.5714 16.2411L40.5365 14.0977L41.9944 12.2164C42.1256 12.047 42.1413 11.8152 42.0343 11.6296ZM39.4447 14.262L40.0605 15.5375L38.7278 15.0584C38.5394 14.9909 38.3291 15.0355 38.1845 15.1738L37.1618 16.1536L37.2057 14.738C37.2118 14.538 37.1043 14.3516 36.928 14.257L35.6801 13.5872L37.0401 13.1914C37.2322 13.1355 37.3762 12.9756 37.4117 12.7787L37.6631 11.3849L38.4598 12.556C38.5724 12.7214 38.7688 12.809 38.9671 12.7818L40.3703 12.5903L39.5028 13.7097C39.3802 13.8678 39.3578 14.0818 39.4447 14.262V14.262ZM22.5001 14.6546C17.9493 14.6546 14.247 18.3569 14.247 22.9077C14.247 24.8573 14.927 26.6509 16.0616 28.0646C16.0825 28.0974 16.107 28.1276 16.1345 28.155C17.6495 29.9896 19.9406 31.1608 22.5002 31.1608C25.0597 31.1608 27.3505 29.9897 28.8655 28.1553C28.8931 28.1278 28.9178 28.0973 28.9388 28.0644C30.0733 26.6507 30.7532 24.8572 30.7532 22.9077C30.7532 18.3569 27.0509 14.6546 22.5001 14.6546ZM22.5001 30.1062C20.3359 30.1062 18.3934 29.1449 17.0726 27.6285C17.402 26.2372 18.8449 25.2201 21.0014 24.869C21.4601 25.0721 21.9669 25.1859 22.5 25.1859C23.033 25.1859 23.5398 25.0721 23.9986 24.869C26.1551 25.2201 27.598 26.2372 27.9274 27.6285C26.6067 29.1449 24.6641 30.1063 22.5001 30.1063V30.1062ZM22.5001 24.1312C21.0333 24.1312 19.84 22.9379 19.84 21.4711C19.84 20.0043 21.0333 18.811 22.5001 18.811C23.9669 18.811 25.1602 20.0043 25.1602 21.4711C25.1602 22.9379 23.9669 24.1312 22.5001 24.1312ZM28.6748 26.603C28.0918 25.4144 26.8652 24.5166 25.1728 24.0471C25.8172 23.3787 26.2149 22.4707 26.2149 21.4711C26.2149 19.4227 24.5484 17.7563 22.5001 17.7563C20.4517 17.7563 18.7853 19.4227 18.7853 21.4711C18.7853 22.4707 19.1829 23.3787 19.8273 24.0471C18.1351 24.5166 16.9084 25.4144 16.3254 26.603C15.6761 25.5221 15.3016 24.2579 15.3016 22.9078C15.3016 18.9385 18.5308 15.7093 22.5001 15.7093C26.4693 15.7093 29.6985 18.9385 29.6985 22.9078C29.6985 24.2579 29.3241 25.5221 28.6747 26.603H28.6748Z" fill="#18191C"/>
</svg>
